<svg xmlns="http://www.w3.org/2000/svg" xmlns:xlink="http://www.w3.org/1999/xlink" viewBox="0 0 1728 1296">
  <defs>
    <style>
      .cls-1, .cls-3, .cls-4 {
        fill: none;
      }

      .cls-2 {
        clip-path: url(#clip-path);
      }

      .cls-3, .cls-4 {
        stroke: #231f20;
        stroke-linecap: round;
        stroke-linejoin: round;
      }

      .cls-3 {
        stroke-width: 0.24px;
      }

      .cls-4 {
        stroke-width: 0.72px;
      }

      .cls-5 {
        clip-path: url(#clip-path-2);
      }

      .cls-6 {
        font-size: 10px;
      }

      .cls-11, .cls-13, .cls-6, .cls-7 {
        fill: #231f20;
        font-family: ArialMT, Arial;
      }

      .cls-7 {
        font-size: 21px;
      }

      .cls-8 {
        letter-spacing: -0.02em;
      }

      .cls-9 {
        letter-spacing: 0em;
      }

      .cls-10 {
        letter-spacing: -0.02em;
      }

      .cls-11 {
        font-size: 12px;
      }

      .cls-12 {
        letter-spacing: -0.02em;
      }

      .cls-13 {
        font-size: 36px;
      }
    </style>
    <clipPath id="clip-path">
      <polyline class="cls-1" points="102.4 1150.64 1624.72 1150.64 1624.72 144.56 102.4 144.56 102.4 1150.64"/>
    </clipPath>
    <clipPath id="clip-path-2">
      <rect class="cls-1" width="1728" height="1296"/>
    </clipPath>
  </defs>
  <title></title>
  <g id="Floor_Plan" data-name="Floor Plan">
    <g class="cls-2">
      <line class="cls-3" x1="236.2" y1="954.08" x2="1304.92" y2="954.08"/>
      <line class="cls-3" x1="1313.92" y1="945.08" x2="1191.16" y2="945.08"/>
      <line class="cls-3" x1="1187.2" y1="945.08" x2="706.6" y2="945.08"/>
      <line class="cls-3" x1="700.84" y1="945.08" x2="456.04" y2="945.08"/>
      <line class="cls-3" x1="451.72" y1="945.08" x2="248.68" y2="945.08"/>
      <line class="cls-3" x1="1313.92" y1="950.84" x2="1313.92" y2="945.08"/>
      <line class="cls-3" x1="1191.16" y1="945.08" x2="1187.2" y2="945.08"/>
      <line class="cls-3" x1="706.6" y1="945.08" x2="700.84" y2="945.08"/>
      <line class="cls-3" x1="456.04" y1="945.08" x2="451.72" y2="945.08"/>
      <line class="cls-3" x1="236.2" y1="423.92" x2="236.2" y2="954.08"/>
      <line class="cls-3" x1="245.2" y1="859.28" x2="245.2" y2="855.08"/>
      <line class="cls-3" x1="1130.44" y1="432.92" x2="984.64" y2="432.92"/>
      <line class="cls-3" x1="979.24" y1="432.92" x2="928.72" y2="432.92"/>
      <line class="cls-3" x1="926.92" y1="432.92" x2="897.76" y2="432.92"/>
      <line class="cls-3" x1="895.96" y1="432.92" x2="845.44" y2="432.92"/>
      <line class="cls-3" x1="841.96" y1="432.92" x2="791.44" y2="432.92"/>
      <polyline class="cls-3" points="748.72 423.92 748.72 432.92 755.2 432.92 755.2 423.92"/>
      <line class="cls-3" x1="785.2" y1="432.92" x2="785.2" y2="423.92"/>
      <line class="cls-3" x1="709.72" y1="432.92" x2="709.72" y2="423.92"/>
      <line class="cls-3" x1="1126" y1="423.92" x2="785.2" y2="423.92"/>
      <line class="cls-3" x1="236.2" y1="423.92" x2="709.72" y2="423.92"/>
      <line class="cls-3" x1="789.76" y1="432.92" x2="785.2" y2="432.92"/>
      <line class="cls-3" x1="984.64" y1="432.92" x2="980.92" y2="432.92"/>
      <line class="cls-3" x1="245.2" y1="432.92" x2="709.72" y2="432.92"/>
      <line class="cls-3" x1="755.2" y1="423.92" x2="748.72" y2="423.92"/>
      <line class="cls-3" x1="785.56" y1="862.4" x2="785.56" y2="873.92"/>
      <line class="cls-3" x1="785.56" y1="436.4" x2="785.56" y2="823.4"/>
      <line class="cls-3" x1="785.56" y1="862.4" x2="789.76" y2="862.4"/>
      <line class="cls-3" x1="785.56" y1="823.4" x2="789.76" y2="823.4"/>
      <line class="cls-3" x1="789.76" y1="862.4" x2="789.76" y2="869.96"/>
      <line class="cls-3" x1="789.76" y1="823.4" x2="789.76" y2="681.92"/>
      <line class="cls-3" x1="789.76" y1="680.12" x2="789.76" y2="629.6"/>
      <line class="cls-3" x1="789.76" y1="626.12" x2="789.76" y2="575.6"/>
      <line class="cls-3" x1="789.76" y1="572.12" x2="789.76" y2="521.72"/>
      <line class="cls-3" x1="789.76" y1="519.92" x2="789.76" y2="504.92"/>
      <line class="cls-3" x1="789.76" y1="503.12" x2="789.76" y2="452.72"/>
      <line class="cls-3" x1="789.76" y1="449.12" x2="789.76" y2="434.72"/>
      <line class="cls-3" x1="1313.92" y1="1094.36" x2="1313.92" y2="950.84"/>
      <line class="cls-3" x1="1304.92" y1="954.08" x2="1304.92" y2="1103.36"/>
      <line class="cls-3" x1="1499.92" y1="1094.36" x2="1463.2" y2="1094.36"/>
      <line class="cls-3" x1="1457.2" y1="1094.36" x2="1381.48" y2="1094.36"/>
      <line class="cls-3" x1="1369.48" y1="1094.36" x2="1341.76" y2="1094.36"/>
      <line class="cls-3" x1="1326.76" y1="1094.36" x2="1313.92" y2="1094.36"/>
      <line class="cls-3" x1="1304.92" y1="1103.36" x2="1326.76" y2="1103.36"/>
      <line class="cls-3" x1="1341.76" y1="1103.36" x2="1369.48" y2="1103.36"/>
      <line class="cls-3" x1="1381.48" y1="1103.36" x2="1522.96" y2="1103.36"/>
      <line class="cls-3" x1="1524.76" y1="1033.64" x2="1524.76" y2="1087.64"/>
      <line class="cls-3" x1="1532.2" y1="1087.64" x2="1532.2" y2="1027.64"/>
      <line class="cls-3" x1="1510.48" y1="1031.12" x2="1509.4" y2="1031.12"/>
      <polyline class="cls-3" points="1463.2 1037.12 1519.48 1037.12 1519.48 1033.64"/>
      <line class="cls-3" x1="1463.2" y1="1031.12" x2="1463.2" y2="1033.28"/>
      <polyline class="cls-3" points="1375.72 950.84 1375.72 951.44 1381.48 951.44 1381.48 945.08"/>
      <line class="cls-3" x1="1375.72" y1="986" x2="1375.72" y2="1090.64"/>
      <line class="cls-3" x1="1381.48" y1="1090.64" x2="1381.48" y2="1033.28"/>
      <polyline class="cls-3" points="1381.48 1027.64 1381.48 986 1375.72 986"/>
      <line class="cls-3" x1="1381.48" y1="945.08" x2="1313.92" y2="945.08"/>
      <line class="cls-3" x1="1313.92" y1="950.84" x2="1375.72" y2="950.84"/>
      <line class="cls-3" x1="1519.48" y1="1027.64" x2="1519.48" y2="936.08"/>
      <line class="cls-3" x1="1519.48" y1="918.08" x2="1519.48" y2="522.2"/>
      <line class="cls-3" x1="1519.48" y1="504.2" x2="1519.48" y2="432.92"/>
      <line class="cls-3" x1="1510.48" y1="432.92" x2="1510.48" y2="504.2"/>
      <line class="cls-3" x1="1510.48" y1="522.2" x2="1510.48" y2="680.36"/>
      <line class="cls-3" x1="1510.48" y1="698.36" x2="1510.48" y2="918.08"/>
      <line class="cls-3" x1="1510.48" y1="936.08" x2="1510.48" y2="1031.12"/>
      <line class="cls-3" x1="700.84" y1="909.08" x2="700.84" y2="820.16"/>
      <line class="cls-3" x1="700.84" y1="475.4" x2="700.84" y2="818.24"/>
      <line class="cls-3" x1="700.84" y1="939.08" x2="700.84" y2="945.08"/>
      <line class="cls-3" x1="700.84" y1="909.08" x2="706.6" y2="909.08"/>
      <line class="cls-3" x1="700.84" y1="939.08" x2="706.6" y2="939.08"/>
      <polyline class="cls-3" points="700.84 475.4 706.6 475.4 706.6 909.08"/>
      <line class="cls-3" x1="706.6" y1="945.08" x2="706.6" y2="939.08"/>
      <line class="cls-3" x1="668.2" y1="822.08" x2="668.2" y2="823.04"/>
      <line class="cls-3" x1="668.2" y1="824.24" x2="668.2" y2="853.04"/>
      <line class="cls-3" x1="668.2" y1="854.24" x2="668.2" y2="855.08"/>
      <line class="cls-3" x1="620.92" y1="822.08" x2="620.92" y2="823.04"/>
      <line class="cls-3" x1="620.92" y1="824.24" x2="620.92" y2="853.04"/>
      <line class="cls-3" x1="620.92" y1="854.24" x2="620.92" y2="855.08"/>
      <line class="cls-3" x1="620.92" y1="822.08" x2="624.16" y2="822.08"/>
      <line class="cls-3" x1="660.88" y1="822.08" x2="660.88" y2="823.04"/>
      <line class="cls-3" x1="660.88" y1="824.24" x2="660.88" y2="831.08"/>
      <line class="cls-3" x1="660.88" y1="835.28" x2="660.88" y2="842"/>
      <line class="cls-3" x1="660.88" y1="846.2" x2="660.88" y2="853.04"/>
      <line class="cls-3" x1="660.88" y1="854.24" x2="660.88" y2="855.08"/>
      <line class="cls-3" x1="653.08" y1="822.08" x2="653.08" y2="823.04"/>
      <line class="cls-3" x1="653.08" y1="824.24" x2="653.08" y2="831.08"/>
      <line class="cls-3" x1="653.08" y1="835.28" x2="653.08" y2="842"/>
      <line class="cls-3" x1="653.08" y1="846.2" x2="653.08" y2="853.04"/>
      <line class="cls-3" x1="653.08" y1="854.24" x2="653.08" y2="855.08"/>
      <line class="cls-3" x1="645.16" y1="822.08" x2="645.16" y2="823.04"/>
      <line class="cls-3" x1="645.16" y1="824.24" x2="645.16" y2="831.08"/>
      <line class="cls-3" x1="645.16" y1="835.28" x2="645.16" y2="842"/>
      <line class="cls-3" x1="645.16" y1="846.2" x2="645.16" y2="853.04"/>
      <line class="cls-3" x1="645.16" y1="854.24" x2="645.16" y2="855.08"/>
      <line class="cls-3" x1="637.24" y1="822.08" x2="637.24" y2="823.04"/>
      <line class="cls-3" x1="637.24" y1="824.24" x2="637.24" y2="831.08"/>
      <line class="cls-3" x1="637.24" y1="835.28" x2="637.24" y2="842"/>
      <line class="cls-3" x1="637.24" y1="846.2" x2="637.24" y2="853.04"/>
      <line class="cls-3" x1="637.24" y1="854.24" x2="637.24" y2="855.08"/>
      <line class="cls-3" x1="629.44" y1="822.08" x2="629.44" y2="823.04"/>
      <line class="cls-3" x1="629.44" y1="824.24" x2="629.44" y2="831.08"/>
      <line class="cls-3" x1="629.44" y1="835.28" x2="629.44" y2="842"/>
      <line class="cls-3" x1="629.44" y1="846.2" x2="629.44" y2="853.04"/>
      <line class="cls-3" x1="629.44" y1="854.24" x2="629.44" y2="855.08"/>
      <line class="cls-3" x1="621.52" y1="822.08" x2="621.52" y2="823.04"/>
      <line class="cls-3" x1="621.52" y1="824.24" x2="621.52" y2="831.08"/>
      <line class="cls-3" x1="621.52" y1="835.28" x2="621.52" y2="842"/>
      <line class="cls-3" x1="621.52" y1="846.2" x2="621.52" y2="853.04"/>
      <line class="cls-3" x1="621.52" y1="854.24" x2="621.52" y2="855.08"/>
      <line class="cls-3" x1="660.4" y1="822.08" x2="660.4" y2="823.04"/>
      <line class="cls-3" x1="660.4" y1="824.24" x2="660.4" y2="853.04"/>
      <line class="cls-3" x1="660.4" y1="854.24" x2="660.4" y2="855.08"/>
      <line class="cls-3" x1="652.48" y1="822.08" x2="652.48" y2="823.04"/>
      <line class="cls-3" x1="652.48" y1="824.24" x2="652.48" y2="853.04"/>
      <line class="cls-3" x1="652.48" y1="854.24" x2="652.48" y2="855.08"/>
      <line class="cls-3" x1="644.56" y1="822.08" x2="644.56" y2="823.04"/>
      <line class="cls-3" x1="644.56" y1="824.24" x2="644.56" y2="853.04"/>
      <line class="cls-3" x1="644.56" y1="854.24" x2="644.56" y2="855.08"/>
      <line class="cls-3" x1="636.76" y1="822.08" x2="636.76" y2="823.04"/>
      <line class="cls-3" x1="636.76" y1="824.24" x2="636.76" y2="853.04"/>
      <line class="cls-3" x1="636.76" y1="854.24" x2="636.76" y2="855.08"/>
      <line class="cls-3" x1="628.84" y1="822.08" x2="628.84" y2="823.04"/>
      <line class="cls-3" x1="628.84" y1="824.24" x2="628.84" y2="853.04"/>
      <line class="cls-3" x1="628.84" y1="854.24" x2="628.84" y2="855.08"/>
      <polyline class="cls-3" points="620.92 838.64 668.2 838.64 663.76 843.08"/>
      <line class="cls-3" x1="668.2" y1="838.64" x2="663.76" y2="834.08"/>
      <line class="cls-3" x1="668.2" y1="853.04" x2="668.2" y2="854.24"/>
      <polyline class="cls-3" points="668.2 853.04 620.92 853.04 620.92 854.24 668.2 854.24"/>
      <line class="cls-3" x1="451.72" y1="859.28" x2="248.68" y2="859.28"/>
      <line class="cls-3" x1="248.68" y1="855.08" x2="456.04" y2="855.08"/>
      <polyline class="cls-3" points="451.72 859.28 451.72 865.28 456.04 865.28 456.04 855.08"/>
      <line class="cls-3" x1="451.72" y1="895.28" x2="451.72" y2="945.08"/>
      <polyline class="cls-3" points="456.04 945.08 456.04 895.28 451.72 895.28"/>
      <polyline class="cls-3" points="785.56 873.92 1041.52 873.92 1041.52 869.96 789.76 869.96"/>
      <polyline class="cls-3" points="1098.52 873.92 1155.76 873.92 1155.76 869.96 1102.48 869.96"/>
      <line class="cls-3" x1="1185.76" y1="873.92" x2="1187.2" y2="873.92"/>
      <line class="cls-3" x1="1191.16" y1="668.24" x2="1191.16" y2="712.04"/>
      <line class="cls-3" x1="1191.16" y1="723.32" x2="1191.16" y2="734.6"/>
      <line class="cls-3" x1="1191.16" y1="745.76" x2="1191.16" y2="757.04"/>
      <line class="cls-3" x1="1191.16" y1="768.32" x2="1191.16" y2="779.6"/>
      <line class="cls-3" x1="1191.16" y1="790.76" x2="1191.16" y2="802.04"/>
      <line class="cls-3" x1="1191.16" y1="813.32" x2="1191.16" y2="868.4"/>
      <line class="cls-3" x1="1185.76" y1="873.92" x2="1185.76" y2="668.24"/>
      <line class="cls-3" x1="1191.16" y1="873.92" x2="1298.2" y2="873.92"/>
      <line class="cls-3" x1="1292.8" y1="868.4" x2="1191.16" y2="868.4"/>
      <polyline class="cls-3" points="1298.2 873.92 1298.2 857.72 1292.8 857.72 1292.8 868.4"/>
      <line class="cls-3" x1="1298.2" y1="827.72" x2="1298.2" y2="823.4"/>
      <polyline class="cls-3" points="1292.8 823.4 1292.8 827.72 1298.2 827.72"/>
      <line class="cls-3" x1="1392.16" y1="823.4" x2="1357.6" y2="823.4"/>
      <line class="cls-3" x1="1352.2" y1="823.4" x2="1298.2" y2="823.4"/>
      <line class="cls-3" x1="1292.8" y1="823.4" x2="1261.24" y2="823.4"/>
      <line class="cls-3" x1="1261.24" y1="818" x2="1314.16" y2="818"/>
      <line class="cls-3" x1="1319.56" y1="818" x2="1329.28" y2="818"/>
      <polyline class="cls-3" points="1334.8 818 1392.16 818 1392.16 823.4"/>
      <line class="cls-3" x1="1261.24" y1="823.4" x2="1261.24" y2="818"/>
      <polyline class="cls-3" points="1352.2 823.4 1352.2 827.72 1357.6 827.72 1357.6 823.4"/>
      <line class="cls-3" x1="1352.2" y1="857.72" x2="1352.2" y2="873.92"/>
      <polyline class="cls-3" points="1357.6 868.4 1357.6 857.72 1352.2 857.72"/>
      <line class="cls-3" x1="1352.2" y1="873.92" x2="1465.24" y2="873.92"/>
      <line class="cls-3" x1="1459.84" y1="868.4" x2="1357.6" y2="868.4"/>
      <line class="cls-3" x1="1465.24" y1="873.92" x2="1465.24" y2="662.72"/>
      <line class="cls-3" x1="1459.84" y1="668.24" x2="1459.84" y2="712.04"/>
      <line class="cls-3" x1="1459.84" y1="723.32" x2="1459.84" y2="734.6"/>
      <line class="cls-3" x1="1459.84" y1="745.76" x2="1459.84" y2="757.04"/>
      <line class="cls-3" x1="1459.84" y1="768.32" x2="1459.84" y2="779.6"/>
      <line class="cls-3" x1="1459.84" y1="790.76" x2="1459.84" y2="802.04"/>
      <line class="cls-3" x1="1459.84" y1="813.32" x2="1459.84" y2="868.4"/>
      <line class="cls-3" x1="1102.48" y1="662.72" x2="1308.88" y2="662.72"/>
      <line class="cls-3" x1="1335.88" y1="662.72" x2="1384.72" y2="662.72"/>
      <line class="cls-3" x1="1388.56" y1="662.72" x2="1465.24" y2="662.72"/>
      <line class="cls-3" x1="1459.84" y1="668.24" x2="1337.56" y2="668.24"/>
      <line class="cls-3" x1="1332.16" y1="668.24" x2="1319.56" y2="668.24"/>
      <line class="cls-3" x1="1314.16" y1="668.24" x2="1191.16" y2="668.24"/>
      <line class="cls-3" x1="1185.76" y1="668.24" x2="1102.48" y2="668.24"/>
      <line class="cls-3" x1="1102.48" y1="621.56" x2="1102.48" y2="585.56"/>
      <line class="cls-3" x1="1102.48" y1="583.76" x2="1102.48" y2="551.24"/>
      <line class="cls-3" x1="1102.48" y1="547.76" x2="1102.48" y2="515.24"/>
      <line class="cls-3" x1="1102.48" y1="660.56" x2="1102.48" y2="662.72"/>
      <line class="cls-3" x1="1102.48" y1="668.24" x2="1102.48" y2="869.96"/>
      <line class="cls-3" x1="1098.52" y1="660.56" x2="1098.52" y2="873.92"/>
      <line class="cls-3" x1="1098.52" y1="591.8" x2="1098.52" y2="621.56"/>
      <line class="cls-3" x1="1098.52" y1="509.6" x2="1098.52" y2="588.08"/>
      <line class="cls-3" x1="1102.48" y1="660.56" x2="1098.52" y2="660.56"/>
      <line class="cls-3" x1="1102.48" y1="621.56" x2="1098.52" y2="621.56"/>
      <line class="cls-3" x1="1465.24" y1="626.72" x2="1465.24" y2="509.6"/>
      <line class="cls-3" x1="1461.28" y1="513.56" x2="1461.28" y2="622.88"/>
      <line class="cls-3" x1="1460.8" y1="626.72" x2="1465.24" y2="626.72"/>
      <polyline class="cls-3" points="1461.28 622.88 1460.8 622.88 1460.8 626.72"/>
      <line class="cls-3" x1="1426.24" y1="622.88" x2="1388.56" y2="622.88"/>
      <polyline class="cls-3" points="1388.56 626.72 1426.24 626.72 1426.24 622.88"/>
      <polyline class="cls-3" points="1388.56 662.72 1388.56 659.72 1384.72 659.72 1384.72 662.72"/>
      <line class="cls-3" x1="1388.56" y1="629.72" x2="1388.56" y2="626.72"/>
      <line class="cls-3" x1="1388.56" y1="622.88" x2="1388.56" y2="513.56"/>
      <polyline class="cls-3" points="1384.72 513.56 1384.72 629.72 1388.56 629.72"/>
      <line class="cls-3" x1="1273.96" y1="509.6" x2="1326.88" y2="509.6"/>
      <line class="cls-3" x1="1330.12" y1="509.6" x2="1338.28" y2="509.6"/>
      <line class="cls-3" x1="1341.52" y1="509.6" x2="1465.24" y2="509.6"/>
      <line class="cls-3" x1="1461.28" y1="513.56" x2="1388.56" y2="513.56"/>
      <line class="cls-3" x1="1384.72" y1="513.56" x2="1273.96" y2="513.56"/>
      <line class="cls-3" x1="1098.52" y1="509.6" x2="1130.44" y2="509.6"/>
      <line class="cls-3" x1="1159.96" y1="509.6" x2="1134.28" y2="509.6"/>
      <line class="cls-3" x1="1201.72" y1="509.6" x2="1163.44" y2="509.6"/>
      <line class="cls-3" x1="1201.72" y1="513.56" x2="1115.92" y2="513.56"/>
      <line class="cls-3" x1="1114.24" y1="513.56" x2="1104.28" y2="513.56"/>
      <line class="cls-3" x1="1268.2" y1="508.52" x2="1207.48" y2="508.52"/>
      <line class="cls-3" x1="1201.72" y1="514.28" x2="1201.72" y2="513.56"/>
      <polyline class="cls-3" points="1273.96 513.56 1273.96 514.28 1201.72 514.28"/>
      <line class="cls-3" x1="1201.72" y1="470.84" x2="1201.72" y2="509.6"/>
      <polyline class="cls-3" points="1207.48 439.04 1201.72 439.04 1201.72 421.04"/>
      <polyline class="cls-3" points="1201.72 470.84 1207.48 470.84 1207.48 508.52"/>
      <line class="cls-3" x1="1207.48" y1="429.8" x2="1207.48" y2="439.04"/>
      <line class="cls-3" x1="1268.2" y1="470.84" x2="1268.2" y2="508.52"/>
      <line class="cls-3" x1="1268.2" y1="439.04" x2="1268.2" y2="429.8"/>
      <line class="cls-3" x1="1268.2" y1="470.84" x2="1273.96" y2="470.84"/>
      <line class="cls-3" x1="1268.2" y1="439.04" x2="1273.96" y2="439.04"/>
      <line class="cls-3" x1="1273.96" y1="470.84" x2="1273.96" y2="509.6"/>
      <line class="cls-3" x1="1273.96" y1="439.04" x2="1273.96" y2="426.8"/>
      <line class="cls-3" x1="1201.72" y1="421.04" x2="1286.68" y2="421.04"/>
      <line class="cls-3" x1="1268.2" y1="429.8" x2="1207.48" y2="429.8"/>
      <line class="cls-3" x1="1130.44" y1="509.6" x2="1130.44" y2="432.92"/>
      <line class="cls-3" x1="1134.28" y1="432.92" x2="1134.28" y2="497.72"/>
      <line class="cls-3" x1="1134.28" y1="501.2" x2="1134.28" y2="509.6"/>
      <polyline class="cls-3" points="1286.68 421.04 1286.68 426.8 1273.96 426.8"/>
      <line class="cls-3" x1="1286.68" y1="338.6" x2="1286.68" y2="421.04"/>
      <polyline class="cls-3" points="1280.92 421.04 1280.92 370.88 1286.68 370.88"/>
      <line class="cls-3" x1="1280.92" y1="370.88" x2="1280.92" y2="343.52"/>
      <polyline class="cls-3" points="1331.68 345.08 1331.68 374.72 1337.44 374.72 1337.44 351.68"/>
      <line class="cls-3" x1="1331.68" y1="404.72" x2="1331.68" y2="426.8"/>
      <polyline class="cls-3" points="1337.44 422.6 1337.44 404.72 1331.68 404.72"/>
      <line class="cls-3" x1="1331.68" y1="426.8" x2="1399.48" y2="426.8"/>
      <line class="cls-3" x1="1400.32" y1="422.6" x2="1337.44" y2="422.6"/>
      <line class="cls-3" x1="1532.2" y1="423.92" x2="1409.2" y2="423.92"/>
      <polyline class="cls-3" points="1399.48 428.24 1398.76 432.92 1399.48 432.92"/>
      <line class="cls-3" x1="1509.4" y1="432.92" x2="1510.48" y2="432.92"/>
      <polyline class="cls-3" points="1314.16 769.04 1293.16 769.04 1293.16 773 1314.16 773"/>
      <polyline class="cls-3" points="1334.8 773 1355.8 773 1355.8 769.04 1334.8 769.04"/>
      <line class="cls-3" x1="1319.56" y1="818" x2="1319.56" y2="668.24"/>
      <line class="cls-3" x1="1314.16" y1="668.24" x2="1314.16" y2="698.36"/>
      <line class="cls-3" x1="1314.16" y1="703.76" x2="1314.16" y2="769.04"/>
      <line class="cls-3" x1="1314.16" y1="773" x2="1314.16" y2="818"/>
      <line class="cls-3" x1="1334.8" y1="818" x2="1334.8" y2="773"/>
      <line class="cls-3" x1="1334.8" y1="769.04" x2="1334.8" y2="760.88"/>
      <line class="cls-3" x1="1334.8" y1="750.32" x2="1334.8" y2="742.04"/>
      <line class="cls-3" x1="1334.8" y1="738.08" x2="1334.8" y2="703.76"/>
      <polyline class="cls-3" points="1332.16 698.36 1329.28 698.36 1329.28 818"/>
      <polyline class="cls-3" points="1334.8 703.76 1392.88 703.76 1392.88 698.36 1337.56 698.36 1337.56 668.24"/>
      <line class="cls-3" x1="1332.16" y1="668.24" x2="1332.16" y2="698.36"/>
      <line class="cls-3" x1="1261.6" y1="698.36" x2="1314.16" y2="698.36"/>
      <polyline class="cls-3" points="1314.16 703.76 1261.6 703.76 1261.6 698.36"/>
      <polyline class="cls-3" points="1334.8 742.04 1355.8 742.04 1355.8 738.08 1334.8 738.08"/>
      <path class="cls-3" d="M1299.22,681.68a1.5,1.5,0,1,0,1.5,1.5,1.5,1.5,0,0,0-1.5-1.5"/>
      <path class="cls-3" d="M1352.62,681.68a1.5,1.5,0,1,0,1.5,1.5,1.5,1.5,0,0,0-1.5-1.5"/>
      <line class="cls-3" x1="1392.28" y1="698.36" x2="1392.28" y2="668.24"/>
      <rect class="cls-3" x="1334.8" y="751.04" width="1.32" height="9"/>
      <path class="cls-3" d="M1337.78,760a5.2,5.2,0,0,0,0-8.94"/>
      <rect class="cls-3" x="1334.8" y="760.04" width="3" height="0.84"/>
      <rect class="cls-3" x="1334.8" y="750.32" width="3" height="0.72"/>
      <rect class="cls-3" x="1294.6" y="705.32" width="18" height="62.28"/>
      <path class="cls-3" d="M1296.52,736.34a7.14,7.14,0,1,0,14.28,0"/>
      <path class="cls-3" d="M1310.8,736.34a7.14,7.14,0,1,0-14.28,0"/>
      <path class="cls-3" d="M1306.94,740.74a13.44,13.44,0,0,0,.74-4.12"/>
      <path class="cls-3" d="M1305.22,736a.3.3,0,1,0,0,.6"/>
      <line class="cls-3" x1="1308.4" y1="736.76" x2="1305.16" y2="736.76"/>
      <line class="cls-3" x1="1308.4" y1="736.16" x2="1305.16" y2="736.16"/>
      <path class="cls-3" d="M1307.68,736.06a13.1,13.1,0,0,0-.75-4.12"/>
      <path class="cls-3" d="M1305.2,742.13a3,3,0,0,0,1.68-1.34"/>
      <path class="cls-3" d="M1306.88,732a3,3,0,0,0-1.68-1.34"/>
      <path class="cls-3" d="M1305.17,730.59a5.95,5.95,0,1,0,0,11.5"/>
      <path class="cls-3" d="M1308.46,734.48a.42.42,0,0,0,0,.84"/>
      <path class="cls-3" d="M1308.46,735.32a.42.42,0,1,0,0-.84"/>
      <path class="cls-3" d="M1308.46,736.64a.3.3,0,1,0,0-.6"/>
      <path class="cls-3" d="M1308.46,737.48a.42.42,0,0,0,0,.84"/>
      <path class="cls-3" d="M1308.46,738.32a.42.42,0,1,0,0-.84"/>
      <path class="cls-3" d="M1303.66,735.68a.66.66,0,1,0,0,1.32"/>
      <path class="cls-3" d="M1303.66,737a.66.66,0,1,0,0-1.32"/>
      <line class="cls-3" x1="248.68" y1="945.08" x2="248.68" y2="859.28"/>
      <line class="cls-3" x1="248.68" y1="436.4" x2="248.68" y2="645.08"/>
      <line class="cls-3" x1="248.68" y1="663.08" x2="248.68" y2="789.08"/>
      <line class="cls-3" x1="248.68" y1="807.08" x2="248.68" y2="855.08"/>
      <line class="cls-3" x1="709.72" y1="436.4" x2="248.68" y2="436.4"/>
      <line class="cls-3" x1="785.2" y1="436.4" x2="785.56" y2="436.4"/>
      <line class="cls-3" x1="748.72" y1="436.4" x2="755.2" y2="436.4"/>
      <line class="cls-3" x1="785.2" y1="436.4" x2="785.2" y2="432.92"/>
      <line class="cls-3" x1="709.72" y1="436.4" x2="709.72" y2="432.92"/>
      <line class="cls-3" x1="748.72" y1="436.4" x2="748.72" y2="432.92"/>
      <line class="cls-3" x1="755.2" y1="436.4" x2="755.2" y2="432.92"/>
      <line class="cls-3" x1="755.2" y1="381.92" x2="748.72" y2="381.92"/>
      <polyline class="cls-3" points="755.2 309.92 748.72 309.92 748.72 297.08"/>
      <line class="cls-3" x1="748.72" y1="381.92" x2="748.72" y2="423.92"/>
      <line class="cls-3" x1="755.2" y1="297.92" x2="748.72" y2="297.08"/>
      <polyline class="cls-3" points="746.2 424.88 720.76 399.32 721.72 398.48 747.16 423.92 746.2 424.88"/>
      <path class="cls-3" d="M721.72,398.36a36.08,36.08,0,0,0-10.56,25.5"/>
      <rect class="cls-3" x="747.16" y="423.92" width="1.56" height="9"/>
      <rect class="cls-3" x="709.72" y="423.92" width="1.44" height="9"/>
      <polyline class="cls-3" points="757.6 424.88 776.8 405.68 775.84 404.84 756.76 423.92 757.6 424.88"/>
      <path class="cls-3" d="M783.88,423.86A27,27,0,0,0,776,404.73"/>
      <rect class="cls-3" x="755.2" y="423.92" width="1.56" height="9"/>
      <rect class="cls-3" x="783.76" y="423.92" width="1.44" height="9"/>
      <line class="cls-3" x1="755.2" y1="297.92" x2="755.2" y2="309.92"/>
      <line class="cls-3" x1="755.2" y1="423.92" x2="755.2" y2="381.92"/>
      <polyline class="cls-3" points="701.8 438.8 676.36 464.24 675.4 463.28 700.84 437.84 701.8 438.8"/>
      <path class="cls-3" d="M675.4,463.28a36.08,36.08,0,0,0,25.5,10.56"/>
      <rect class="cls-3" x="700.84" y="436.4" width="5.76" height="1.44"/>
      <rect class="cls-3" x="700.84" y="473.84" width="5.76" height="1.56"/>
      <polyline class="cls-3" points="1385.56 657.32 1366.48 638.24 1365.64 639.2 1384.72 658.28 1385.56 657.32"/>
      <path class="cls-3" d="M1384.78,631.16a27,27,0,0,0-19.13,7.93"/>
      <rect class="cls-3" x="1384.72" y="658.28" width="3.84" height="1.44"/>
      <rect class="cls-3" x="1384.72" y="629.72" width="3.84" height="1.56"/>
      <polyline class="cls-3" points="1458.28 623.72 1436.08 601.52 1437.04 600.56 1459.24 622.88 1458.28 623.72"/>
      <path class="cls-3" d="M1437,600.55a31.51,31.51,0,0,0-9.22,22.27"/>
      <rect class="cls-3" x="1459.24" y="622.88" width="1.56" height="3.84"/>
      <rect class="cls-3" x="1426.24" y="622.88" width="1.56" height="3.84"/>
      <polyline class="cls-3" points="452.68 867.8 433.6 886.88 432.64 885.92 451.72 866.84 452.68 867.8"/>
      <path class="cls-3" d="M432.65,885.91a27,27,0,0,0,19.13,7.93"/>
      <rect class="cls-3" x="451.72" y="865.28" width="4.32" height="1.56"/>
      <rect class="cls-3" x="451.72" y="893.84" width="4.32" height="1.44"/>
      <polyline class="cls-3" points="701.8 936.68 682.72 917.6 681.76 918.56 700.84 937.64 701.8 936.68"/>
      <path class="cls-3" d="M700.9,910.52a27,27,0,0,0-19.13,7.93"/>
      <rect class="cls-3" x="700.84" y="937.64" width="5.76" height="1.44"/>
      <rect class="cls-3" x="700.84" y="909.08" width="5.76" height="1.56"/>
      <polyline class="cls-3" points="788.8 860 814.24 834.56 815.2 835.52 789.76 860.96 788.8 860"/>
      <path class="cls-3" d="M815.32,835.4a36.08,36.08,0,0,0-25.5-10.56"/>
      <rect class="cls-3" x="785.56" y="860.96" width="4.2" height="1.44"/>
      <rect class="cls-3" x="785.56" y="823.4" width="4.2" height="1.56"/>
      <line class="cls-3" x1="1077.88" y1="850.88" x2="1077.04" y2="851.72"/>
      <line class="cls-3" x1="1062.16" y1="850.88" x2="1063" y2="851.72"/>
      <line class="cls-3" x1="1096.12" y1="870.8" x2="1077.04" y2="851.72"/>
      <polyline class="cls-3" points="1096.12 870.8 1097.08 869.96 1077.88 850.88"/>
      <line class="cls-3" x1="1043.92" y1="870.8" x2="1063" y2="851.72"/>
      <polyline class="cls-3" points="1043.92 870.8 1043.08 869.96 1062.16 850.88"/>
      <path class="cls-3" d="M1078.09,850.85a26.94,26.94,0,0,0-7.89,19"/>
      <path class="cls-3" d="M1070.08,869.9a26.94,26.94,0,0,0-7.89-19"/>
      <rect class="cls-3" x="1097.08" y="869.96" width="1.44" height="3.96"/>
      <rect class="cls-3" x="1041.52" y="869.96" width="1.56" height="3.96"/>
      <polyline class="cls-3" points="1183.24 870.8 1164.16 851.72 1165.12 850.88 1184.2 869.96 1183.24 870.8"/>
      <path class="cls-3" d="M1165.13,850.77a27,27,0,0,0-7.93,19.13"/>
      <rect class="cls-3" x="1184.2" y="869.96" width="1.56" height="3.96"/>
      <rect class="cls-3" x="1155.76" y="869.96" width="1.44" height="3.96"/>
      <polyline class="cls-3" points="1101.52 658.04 1126.96 632.6 1127.92 633.56 1102.48 659 1101.52 658.04"/>
      <path class="cls-3" d="M1128,633.44a36.08,36.08,0,0,0-25.5-10.56"/>
      <rect class="cls-3" x="1098.52" y="659" width="3.96" height="1.56"/>
      <rect class="cls-3" x="1098.52" y="621.56" width="3.96" height="1.44"/>
      <polyline class="cls-3" points="1293.64 830.12 1274.56 849.32 1273.72 848.36 1292.8 829.28 1293.64 830.12"/>
      <path class="cls-3" d="M1273.73,848.35a27,27,0,0,0,19.13,7.93"/>
      <rect class="cls-3" x="1292.8" y="827.72" width="5.4" height="1.56"/>
      <rect class="cls-3" x="1292.8" y="856.28" width="5.4" height="1.44"/>
      <polyline class="cls-3" points="1356.76 830.12 1375.84 849.32 1376.68 848.36 1357.6 829.28 1356.76 830.12"/>
      <path class="cls-3" d="M1357.66,856.28a27,27,0,0,0,19.12-7.93"/>
      <rect class="cls-3" x="1352.2" y="827.72" width="5.4" height="1.56"/>
      <rect class="cls-3" x="1352.2" y="856.28" width="5.4" height="1.44"/>
      <polyline class="cls-3" points="1376.68 953.96 1354.36 976.16 1353.52 975.32 1375.72 953 1376.68 953.96"/>
      <path class="cls-3" d="M1353.5,975.21a31.54,31.54,0,0,0,22.28,9.23"/>
      <rect class="cls-3" x="1375.72" y="951.44" width="5.76" height="1.56"/>
      <rect class="cls-3" x="1375.72" y="984.44" width="5.76" height="1.56"/>
      <polyline class="cls-3" points="1187.2 873.92 1187.2 883.28 1191.16 883.28 1191.16 873.92"/>
      <line class="cls-3" x1="1187.2" y1="922.28" x2="1187.2" y2="945.08"/>
      <polyline class="cls-3" points="1191.16 945.08 1191.16 922.28 1187.2 922.28"/>
      <polyline class="cls-3" points="1336.48 377.12 1355.56 396.2 1356.52 395.24 1337.44 376.16 1336.48 377.12"/>
      <path class="cls-3" d="M1337.5,403.16a27,27,0,0,0,19.12-7.93"/>
      <rect class="cls-3" x="1331.68" y="374.72" width="5.76" height="1.44"/>
      <rect class="cls-3" x="1331.68" y="403.16" width="5.76" height="1.56"/>
      <line class="cls-3" x1="1336.12" y1="405.92" x2="1336.12" y2="409.64"/>
      <polyline class="cls-3" points="1336.12 405.92 1332.28 405.92 1332.28 409.64 1336.12 409.64"/>
      <line class="cls-3" x1="1128.52" y1="390.44" x2="1126" y2="423.92"/>
      <line class="cls-3" x1="1131.88" y1="343.4" x2="1141.12" y2="217.52"/>
      <line class="cls-3" x1="1131.28" y1="351.56" x2="1140.28" y2="352.28"/>
      <line class="cls-3" x1="1128.52" y1="390.44" x2="1137.4" y2="391.16"/>
      <line class="cls-3" x1="1141.12" y1="217.52" x2="1156.72" y2="219.68"/>
      <line class="cls-3" x1="1134.4" y1="432.92" x2="1137.4" y2="391.16"/>
      <line class="cls-3" x1="1149.4" y1="227.72" x2="1142.8" y2="317.72"/>
      <line class="cls-3" x1="1142.44" y1="323.48" x2="1140.28" y2="352.28"/>
      <line class="cls-3" x1="1142.8" y1="317.72" x2="1142.44" y2="323.48"/>
      <line class="cls-3" x1="1422.64" y1="267.32" x2="1409.8" y2="356.36"/>
      <line class="cls-3" x1="1408.96" y1="362" x2="1400.32" y2="422.6"/>
      <line class="cls-3" x1="1409.2" y1="423.92" x2="1431.52" y2="268.64"/>
      <line class="cls-3" x1="1409.8" y1="356.36" x2="1408.96" y2="362"/>
      <line class="cls-3" x1="1469.8" y1="274.16" x2="1431.52" y2="268.64"/>
      <line class="cls-3" x1="1422.64" y1="267.32" x2="1214.8" y2="237.2"/>
      <line class="cls-3" x1="1149.4" y1="227.72" x2="1155.4" y2="228.56"/>
      <line class="cls-3" x1="1469.8" y1="274.16" x2="1471.12" y2="265.28"/>
      <line class="cls-3" x1="1155.4" y1="228.56" x2="1156.72" y2="219.68"/>
      <polyline class="cls-3" points="1214.8 237.2 1216 228.32 1471.12 265.28"/>
      <line class="cls-3" x1="1131.28" y1="352.4" x2="755.2" y2="297.92"/>
      <line class="cls-3" x1="748.72" y1="297.08" x2="173.8" y2="213.8"/>
      <line class="cls-3" x1="1131.28" y1="352.4" x2="1131.28" y2="351.56"/>
      <polyline class="cls-3" points="173.8 213.8 175.12 204.92 1131.88 343.4"/>
      <line class="cls-3" x1="1207.72" y1="332.96" x2="1280.92" y2="343.52"/>
      <polyline class="cls-3" points="1149.16 318.68 1148.32 324.32 1142.44 323.48"/>
      <polyline class="cls-3" points="1207.72 332.96 1208.56 327.2 1286.68 338.6"/>
      <line class="cls-3" x1="1142.8" y1="317.72" x2="1149.16" y2="318.68"/>
      <line class="cls-3" x1="1337.44" y1="351.68" x2="1408.96" y2="362"/>
      <line class="cls-3" x1="1409.8" y1="356.36" x2="1331.68" y2="345.08"/>
      <polyline class="cls-3" points="248.68 663.08 263.2 663.08 263.2 645.08 248.68 645.08"/>
      <polyline class="cls-3" points="248.68 807.08 263.2 807.08 263.2 789.08 248.68 789.08"/>
      <polyline class="cls-3" points="1519.48 522.2 1523.2 522.2 1523.2 504.2 1519.48 504.2"/>
      <line class="cls-3" x1="1505.2" y1="504.2" x2="1505.2" y2="522.2"/>
      <line class="cls-3" x1="1509.4" y1="522.2" x2="1510.48" y2="522.2"/>
      <line class="cls-3" x1="1510.48" y1="504.2" x2="1509.4" y2="504.2"/>
      <polyline class="cls-3" points="1519.48 936.08 1523.2 936.08 1523.2 918.08 1519.48 918.08"/>
      <line class="cls-3" x1="1505.2" y1="918.08" x2="1505.2" y2="936.08"/>
      <line class="cls-3" x1="1509.4" y1="936.08" x2="1510.48" y2="936.08"/>
      <line class="cls-3" x1="1510.48" y1="918.08" x2="1509.4" y2="918.08"/>
      <line class="cls-3" x1="1509.4" y1="698.36" x2="1510.48" y2="698.36"/>
      <line class="cls-3" x1="1510.48" y1="680.36" x2="1509.4" y2="680.36"/>
      <line class="cls-3" x1="1505.2" y1="680.36" x2="1505.2" y2="698.36"/>
      <line class="cls-3" x1="1341.76" y1="1105.64" x2="1341.76" y2="1103.36"/>
      <polyline class="cls-3" points="1326.76 1103.36 1326.76 1105.64 1341.76 1105.64"/>
      <line class="cls-3" x1="1326.76" y1="1090.64" x2="1326.76" y2="1094.36"/>
      <polyline class="cls-3" points="1341.76 1094.36 1341.76 1090.64 1326.76 1090.64"/>
      <line class="cls-3" x1="1381.48" y1="1105.64" x2="1381.48" y2="1103.36"/>
      <polyline class="cls-3" points="1369.48 1103.36 1369.48 1105.64 1381.48 1105.64"/>
      <line class="cls-3" x1="1369.48" y1="1090.64" x2="1369.48" y2="1094.36"/>
      <line class="cls-3" x1="1381.48" y1="1094.36" x2="1381.48" y2="1090.64"/>
      <line class="cls-3" x1="1375.72" y1="1090.64" x2="1369.48" y2="1090.64"/>
      <polyline class="cls-3" points="1522.96 1103.36 1524.76 1103.36 1524.76 1102.28"/>
      <polyline class="cls-3" points="1524.4 1089.8 1499.92 1089.8 1499.92 1094.36"/>
      <polyline class="cls-3" points="1524.76 1087.64 1524.64 1088.72 1524.4 1089.8"/>
      <polyline class="cls-3" points="1524.76 1102.28 1526.32 1100.84 1527.88 1099.4 1529.08 1097.6 1530.16 1095.8 1531.12 1093.88 1531.72 1091.84 1532.08 1089.68 1532.2 1087.64"/>
      <polyline class="cls-3" points="1519.48 432.92 1532.2 432.92 1532.2 423.92"/>
      <line class="cls-3" x1="435.76" y1="687.92" x2="435.76" y2="690.92"/>
      <polyline class="cls-3" points="435.76 687.92 432.76 687.92 432.76 690.92 435.76 690.92"/>
      <line class="cls-3" x1="615.76" y1="687.92" x2="615.76" y2="690.92"/>
      <polyline class="cls-3" points="615.76 687.92 612.76 687.92 612.76 690.92 615.76 690.92"/>
      <line class="cls-3" x1="795.76" y1="687.92" x2="795.76" y2="690.92"/>
      <polyline class="cls-3" points="795.76 687.92 792.76 687.92 792.76 690.92 795.76 690.92"/>
      <line class="cls-3" x1="975.76" y1="687.92" x2="975.76" y2="690.92"/>
      <polyline class="cls-3" points="975.76 687.92 972.76 687.92 972.76 690.92 975.76 690.92"/>
      <line class="cls-3" x1="1155.76" y1="687.92" x2="1155.76" y2="690.92"/>
      <polyline class="cls-3" points="1155.76 687.92 1152.76 687.92 1152.76 690.92 1155.76 690.92"/>
      <line class="cls-3" x1="1335.76" y1="687.92" x2="1335.76" y2="690.92"/>
      <polyline class="cls-3" points="1335.76 687.92 1332.76 687.92 1332.76 690.92 1335.76 690.92"/>
      <line class="cls-3" x1="254.2" y1="507.8" x2="254.2" y2="518.48"/>
      <line class="cls-3" x1="248.8" y1="518.48" x2="259.72" y2="518.48"/>
      <line class="cls-3" x1="248.8" y1="507.8" x2="259.72" y2="507.8"/>
      <line class="cls-3" x1="434.2" y1="507.8" x2="434.2" y2="518.48"/>
      <line class="cls-3" x1="428.8" y1="518.48" x2="439.72" y2="518.48"/>
      <line class="cls-3" x1="428.8" y1="507.8" x2="439.72" y2="507.8"/>
      <line class="cls-3" x1="614.2" y1="507.8" x2="614.2" y2="518.48"/>
      <line class="cls-3" x1="608.8" y1="518.48" x2="619.72" y2="518.48"/>
      <line class="cls-3" x1="608.8" y1="507.8" x2="619.72" y2="507.8"/>
      <line class="cls-3" x1="614.2" y1="921.8" x2="614.2" y2="932.48"/>
      <line class="cls-3" x1="608.8" y1="932.48" x2="619.72" y2="932.48"/>
      <line class="cls-3" x1="608.8" y1="921.8" x2="619.72" y2="921.8"/>
      <line class="cls-3" x1="434.2" y1="921.8" x2="434.2" y2="932.48"/>
      <line class="cls-3" x1="428.8" y1="932.48" x2="439.72" y2="932.48"/>
      <line class="cls-3" x1="428.8" y1="921.8" x2="439.72" y2="921.8"/>
      <line class="cls-3" x1="254.2" y1="921.8" x2="254.2" y2="932.48"/>
      <line class="cls-3" x1="248.8" y1="932.48" x2="259.72" y2="932.48"/>
      <line class="cls-3" x1="248.8" y1="921.8" x2="259.72" y2="921.8"/>
      <line class="cls-3" x1="794.2" y1="921.8" x2="794.2" y2="932.48"/>
      <line class="cls-3" x1="788.8" y1="932.48" x2="799.72" y2="932.48"/>
      <line class="cls-3" x1="788.8" y1="921.8" x2="799.72" y2="921.8"/>
      <line class="cls-3" x1="794.2" y1="507.8" x2="794.2" y2="518.48"/>
      <line class="cls-3" x1="788.8" y1="518.48" x2="799.72" y2="518.48"/>
      <line class="cls-3" x1="788.8" y1="507.8" x2="799.72" y2="507.8"/>
      <line class="cls-3" x1="974.2" y1="921.8" x2="974.2" y2="932.48"/>
      <line class="cls-3" x1="968.8" y1="932.48" x2="979.72" y2="932.48"/>
      <line class="cls-3" x1="968.8" y1="921.8" x2="979.72" y2="921.8"/>
      <line class="cls-3" x1="974.2" y1="507.8" x2="974.2" y2="518.48"/>
      <line class="cls-3" x1="968.8" y1="518.48" x2="979.72" y2="518.48"/>
      <line class="cls-3" x1="968.8" y1="507.8" x2="979.72" y2="507.8"/>
      <line class="cls-3" x1="1154.2" y1="921.8" x2="1154.2" y2="932.48"/>
      <line class="cls-3" x1="1148.68" y1="932.48" x2="1159.72" y2="932.48"/>
      <line class="cls-3" x1="1148.68" y1="921.8" x2="1159.72" y2="921.8"/>
      <line class="cls-3" x1="1154.2" y1="507.8" x2="1154.2" y2="518.48"/>
      <line class="cls-3" x1="1148.68" y1="518.48" x2="1159.72" y2="518.48"/>
      <line class="cls-3" x1="1148.68" y1="507.8" x2="1159.72" y2="507.8"/>
      <line class="cls-3" x1="1334.2" y1="921.8" x2="1334.2" y2="932.48"/>
      <line class="cls-3" x1="1328.68" y1="932.48" x2="1339.72" y2="932.48"/>
      <line class="cls-3" x1="1328.68" y1="921.8" x2="1339.72" y2="921.8"/>
      <line class="cls-3" x1="1334.2" y1="507.8" x2="1334.2" y2="518.48"/>
      <line class="cls-3" x1="1328.68" y1="518.48" x2="1339.72" y2="518.48"/>
      <line class="cls-3" x1="1328.68" y1="507.8" x2="1339.72" y2="507.8"/>
      <line class="cls-3" x1="1399.48" y1="426.8" x2="1399.48" y2="428.24"/>
      <polyline class="cls-3" points="1399.48 432.92 1399.48 436.4 1505.92 436.4 1505.92 500.72"/>
      <line class="cls-3" x1="1509.4" y1="504.2" x2="1509.4" y2="432.92"/>
      <line class="cls-3" x1="1505.92" y1="500.72" x2="1500.76" y2="500.72"/>
      <line class="cls-3" x1="1504.12" y1="504.2" x2="1505.2" y2="504.2"/>
      <line class="cls-3" x1="1500.76" y1="500.72" x2="1500.76" y2="525.56"/>
      <line class="cls-3" x1="1504.12" y1="522.2" x2="1504.12" y2="504.2"/>
      <line class="cls-3" x1="1500.76" y1="525.56" x2="1505.92" y2="525.56"/>
      <line class="cls-3" x1="1505.2" y1="522.2" x2="1504.12" y2="522.2"/>
      <line class="cls-3" x1="1505.92" y1="525.56" x2="1505.92" y2="676.88"/>
      <line class="cls-3" x1="1509.4" y1="680.36" x2="1509.4" y2="522.2"/>
      <line class="cls-3" x1="1505.92" y1="676.88" x2="1500.76" y2="676.88"/>
      <line class="cls-3" x1="1504.12" y1="680.36" x2="1505.2" y2="680.36"/>
      <line class="cls-3" x1="1500.76" y1="676.88" x2="1500.76" y2="701.84"/>
      <line class="cls-3" x1="1504.12" y1="698.36" x2="1504.12" y2="680.36"/>
      <line class="cls-3" x1="1500.76" y1="701.84" x2="1505.92" y2="701.84"/>
      <line class="cls-3" x1="1505.2" y1="698.36" x2="1504.12" y2="698.36"/>
      <line class="cls-3" x1="1505.92" y1="701.84" x2="1505.92" y2="914.96"/>
      <line class="cls-3" x1="1509.4" y1="918.08" x2="1509.4" y2="698.36"/>
      <line class="cls-3" x1="1505.92" y1="914.96" x2="1500.76" y2="914.96"/>
      <line class="cls-3" x1="1504.12" y1="918.08" x2="1505.2" y2="918.08"/>
      <line class="cls-3" x1="1500.76" y1="914.96" x2="1500.76" y2="939.32"/>
      <line class="cls-3" x1="1504.12" y1="936.08" x2="1504.12" y2="918.08"/>
      <line class="cls-3" x1="1503.88" y1="939.32" x2="1505.92" y2="939.32"/>
      <line class="cls-3" x1="1505.2" y1="936.08" x2="1504.12" y2="936.08"/>
      <line class="cls-3" x1="1505.92" y1="939.32" x2="1505.92" y2="945.56"/>
      <line class="cls-3" x1="1505.92" y1="948.8" x2="1505.92" y2="1027.64"/>
      <line class="cls-3" x1="1509.4" y1="1031.12" x2="1509.4" y2="936.08"/>
      <polyline class="cls-3" points="1448.32 1027.64 1435.24 1027.64 1435.24 1033.28 1457.2 1033.28"/>
      <line class="cls-3" x1="1403.44" y1="1027.64" x2="1381.48" y2="1027.64"/>
      <polyline class="cls-3" points="1381.48 1033.28 1403.44 1033.28 1403.44 1027.64"/>
      <line class="cls-3" x1="1457.2" y1="1033.28" x2="1463.2" y2="1033.28"/>
      <line class="cls-3" x1="1505.92" y1="1027.64" x2="1451.92" y2="1027.64"/>
      <line class="cls-3" x1="1330.48" y1="921.8" x2="1337.92" y2="921.8"/>
      <line class="cls-3" x1="1341.16" y1="918.56" x2="1327.24" y2="918.56"/>
      <line class="cls-3" x1="1330.48" y1="932.48" x2="1330.48" y2="921.8"/>
      <line class="cls-3" x1="1327.24" y1="918.56" x2="1327.24" y2="935.6"/>
      <line class="cls-3" x1="1337.92" y1="932.48" x2="1330.48" y2="932.48"/>
      <line class="cls-3" x1="1327.24" y1="935.6" x2="1341.16" y2="935.6"/>
      <line class="cls-3" x1="1337.92" y1="921.8" x2="1337.92" y2="932.48"/>
      <line class="cls-3" x1="1341.16" y1="935.6" x2="1341.16" y2="918.56"/>
      <line class="cls-3" x1="724.24" y1="335.84" x2="725.2" y2="336.68"/>
      <line class="cls-3" x1="724.24" y1="356" x2="725.2" y2="355.04"/>
      <line class="cls-3" x1="749.56" y1="312.32" x2="725.2" y2="336.68"/>
      <polyline class="cls-3" points="749.56 312.32 748.72 311.36 724.24 335.84"/>
      <line class="cls-3" x1="749.56" y1="379.52" x2="725.2" y2="355.04"/>
      <polyline class="cls-3" points="749.56 379.52 748.72 380.36 724.24 356"/>
      <path class="cls-3" d="M724.38,335.7a34.57,34.57,0,0,0,24.4,10.1"/>
      <path class="cls-3" d="M748.78,345.8a34.52,34.52,0,0,0-24.4,10.11"/>
      <rect class="cls-3" x="748.72" y="309.92" width="4.2" height="1.44"/>
      <rect class="cls-3" x="748.72" y="380.36" width="4.2" height="1.56"/>
      <line class="cls-3" x1="1159.96" y1="509.6" x2="1159.96" y2="501.2"/>
      <polyline class="cls-3" points="1134.28 497.72 1163.44 497.72 1163.44 509.6"/>
      <line class="cls-3" x1="1159.96" y1="501.2" x2="1134.28" y2="501.2"/>
      <line class="cls-3" x1="1338.28" y1="509" x2="1338.28" y2="509.6"/>
      <polyline class="cls-3" points="1341.52 509.6 1341.52 505.88 1326.88 505.88"/>
      <line class="cls-3" x1="1330.12" y1="509" x2="1338.28" y2="509"/>
      <line class="cls-3" x1="1326.88" y1="505.88" x2="1326.88" y2="509.6"/>
      <line class="cls-3" x1="1330.12" y1="509.6" x2="1330.12" y2="509"/>
      <rect class="cls-3" x="1336.24" y="705.32" width="18" height="31.32"/>
      <path class="cls-3" d="M1352.44,720.86a7.14,7.14,0,0,0-14.28,0"/>
      <path class="cls-3" d="M1338.16,720.86a7.14,7.14,0,0,0,14.28,0"/>
      <path class="cls-3" d="M1341.4,721.14a13.38,13.38,0,0,0,.74,4.12"/>
      <path class="cls-3" d="M1343.86,721.16a.3.3,0,0,0,0-.6"/>
      <line class="cls-3" x1="1340.44" y1="721.28" x2="1343.8" y2="721.28"/>
      <line class="cls-3" x1="1340.44" y1="720.68" x2="1343.8" y2="720.68"/>
      <path class="cls-3" d="M1342.14,716.46a13.38,13.38,0,0,0-.74,4.12"/>
      <path class="cls-3" d="M1342.19,725.31a3,3,0,0,0,1.69,1.34"/>
      <path class="cls-3" d="M1343.88,715.19a3,3,0,0,0-1.69,1.34"/>
      <path class="cls-3" d="M1343.78,726.61a5.95,5.95,0,1,0,0-11.5"/>
      <path class="cls-3" d="M1340.5,719.84a.42.42,0,0,0,0-.84"/>
      <path class="cls-3" d="M1340.5,719a.42.42,0,0,0,0,.84"/>
      <path class="cls-3" d="M1340.5,720.56a.3.3,0,1,0,0,.6"/>
      <path class="cls-3" d="M1340.5,722.84a.42.42,0,0,0,0-.84"/>
      <path class="cls-3" d="M1340.5,722a.42.42,0,0,0,0,.84"/>
      <path class="cls-3" d="M1345.3,721.52a.66.66,0,1,0,0-1.32"/>
      <path class="cls-3" d="M1345.3,720.2a.66.66,0,1,0,0,1.32"/>
      <line class="cls-3" x1="1261.6" y1="698.36" x2="1261.6" y2="668.24"/>
      <line class="cls-3" x1="1300.24" y1="682.28" x2="1314.16" y2="668.24"/>
      <line class="cls-3" x1="1300.24" y1="684.32" x2="1314.16" y2="698.36"/>
      <line class="cls-3" x1="1297.72" y1="683.84" x2="1261.6" y2="698.36"/>
      <line class="cls-3" x1="1297.72" y1="682.76" x2="1261.6" y2="668.24"/>
      <line class="cls-3" x1="668.2" y1="855.08" x2="456.04" y2="855.08"/>
      <line class="cls-3" x1="1419.28" y1="1033.28" x2="1419.4" y2="1033.28"/>
      <line class="cls-3" x1="1331.68" y1="365.24" x2="1286.68" y2="365.24"/>
      <line class="cls-3" x1="1268.2" y1="454.88" x2="1268.2" y2="455"/>
      <line class="cls-3" x1="668.2" y1="822.08" x2="668.2" y2="823.04"/>
      <line class="cls-3" x1="668.2" y1="824.24" x2="668.2" y2="853.04"/>
      <line class="cls-3" x1="668.2" y1="854.24" x2="668.2" y2="855.08"/>
      <line class="cls-3" x1="672.16" y1="285.92" x2="672.16" y2="391.04"/>
      <line class="cls-3" x1="672.16" y1="392.24" x2="672.16" y2="421.88"/>
      <line class="cls-3" x1="672.16" y1="422.96" x2="672.16" y2="423.92"/>
      <line class="cls-3" x1="656.56" y1="481.4" x2="657.4" y2="481.4"/>
      <line class="cls-3" x1="658.6" y1="481.4" x2="700.84" y2="481.4"/>
      <line class="cls-3" x1="700.84" y1="589.4" x2="658.6" y2="589.4"/>
      <line class="cls-3" x1="657.4" y1="589.4" x2="656.56" y2="589.4"/>
      <line class="cls-3" x1="1207.48" y1="455" x2="1207.48" y2="454.88"/>
      <line class="cls-3" x1="1280.92" y1="337.76" x2="1280.92" y2="246.8"/>
      <line class="cls-3" x1="1216" y1="228.32" x2="1156.72" y2="219.68"/>
      <line class="cls-3" x1="656.56" y1="436.4" x2="656.56" y2="589.4"/>
      <line class="cls-3" x1="668.2" y1="823.04" x2="668.2" y2="824.24"/>
      <polyline class="cls-3" points="668.2 823.04 620.92 823.04 620.92 824.24 668.2 824.24"/>
      <line class="cls-3" x1="700.84" y1="822.08" x2="624.16" y2="822.08"/>
      <polyline class="cls-3" points="700.84 820.16 628.84 820.16 628.84 822.08"/>
      <polyline class="cls-3" points="624.16 822.08 624.16 818.24 700.84 818.24"/>
      <polyline class="cls-3" points="1132.12 354.08 1104.88 377.6 1103.92 376.64 1131.16 353 1132.12 354.08"/>
      <path class="cls-3" d="M1103.92,376.5a36.06,36.06,0,0,0,24.66,12.4"/>
      <polyline class="cls-3" points="1131.16 353 1140.16 353.72 1140.28 352.28 1131.28 351.56 1131.16 353"/>
      <polyline class="cls-3" points="1128.64 389 1137.52 389.6 1137.4 391.16 1128.52 390.44 1128.64 389"/>
      <line class="cls-3" x1="1351.48" y1="682.28" x2="1337.56" y2="668.24"/>
      <line class="cls-3" x1="1351.48" y1="684.32" x2="1337.56" y2="698.36"/>
      <line class="cls-3" x1="1354" y1="683.84" x2="1392.28" y2="698.36"/>
      <line class="cls-3" x1="1354" y1="682.76" x2="1392.28" y2="668.24"/>
      <polyline class="cls-3" points="456.04 856.04 668.2 856.04 668.2 857.24 456.04 857.24"/>
      <line class="cls-3" x1="657.4" y1="481.4" x2="658.6" y2="481.4"/>
      <polyline class="cls-3" points="658.6 436.4 658.6 481.4 657.4 481.4 657.4 589.4 658.6 589.4 658.6 481.4"/>
      <line class="cls-3" x1="657.4" y1="481.4" x2="657.4" y2="436.4"/>
      <line class="cls-3" x1="1519.48" y1="1033.64" x2="1524.76" y2="1033.64"/>
      <line class="cls-3" x1="1532.2" y1="1027.64" x2="1519.48" y2="1027.64"/>
      <polyline class="cls-3" points="1156.36 221.6 1155.88 225.32 1157.32 225.44 1157.92 221.72 1156.36 221.6"/>
      <polyline class="cls-3" points="1172.2 227.6 1188.4 249.32 1189.36 248.48 1173.28 226.88"/>
      <path class="cls-3" d="M1188.38,249.12a26.91,26.91,0,0,0,10.54-17.72"/>
      <line class="cls-3" x1="1173.28" y1="226.88" x2="1172.2" y2="227.6"/>
      <line class="cls-3" x1="1170.88" y1="226.4" x2="1157.44" y2="224.48"/>
      <polyline class="cls-3" points="1157.44 224.48 1157.56 224.24 1170.88 226.16 1170.88 226.4"/>
      <line class="cls-3" x1="1213.96" y1="232.64" x2="1200.52" y2="230.72"/>
      <polyline class="cls-3" points="1200.52 230.72 1200.52 230.48 1213.96 232.4 1213.96 232.64"/>
      <polyline class="cls-3" points="1215.76 230.12 1215.28 233.84 1213.72 233.6 1214.32 230 1215.76 230.12"/>
      <line class="cls-3" x1="1170.76" y1="227.48" x2="1157.32" y2="225.44"/>
      <line class="cls-3" x1="1157.92" y1="221.72" x2="1171.24" y2="223.76"/>
      <line class="cls-3" x1="1213.72" y1="233.6" x2="1200.4" y2="231.68"/>
      <line class="cls-3" x1="1200.88" y1="227.96" x2="1214.32" y2="230"/>
      <polyline class="cls-3" points="1172.68 223.88 1172.2 227.6 1170.76 227.48 1171.24 223.76 1172.68 223.88"/>
      <polyline class="cls-3" points="1200.88 227.96 1200.4 231.68 1198.96 231.56 1199.44 227.84 1200.88 227.96"/>
      <polyline class="cls-3" points="1149.04 319.64 1148.44 323.36 1150 323.6 1150.48 319.88 1149.04 319.64"/>
      <polyline class="cls-3" points="1164.88 325.64 1180.96 347.36 1182.04 346.52 1165.84 324.92"/>
      <path class="cls-3" d="M1181.06,347.16a26.91,26.91,0,0,0,10.54-17.72"/>
      <line class="cls-3" x1="1165.84" y1="324.92" x2="1164.88" y2="325.64"/>
      <line class="cls-3" x1="1163.44" y1="324.44" x2="1150.12" y2="322.52"/>
      <polyline class="cls-3" points="1150.12 322.52 1150.12 322.4 1163.56 324.32 1163.44 324.44"/>
      <line class="cls-3" x1="1206.52" y1="330.68" x2="1193.2" y2="328.76"/>
      <polyline class="cls-3" points="1193.2 328.76 1193.2 328.52 1206.52 330.56 1206.52 330.68"/>
      <polyline class="cls-3" points="1208.44 328.16 1207.84 331.88 1206.4 331.76 1206.88 328.04 1208.44 328.16"/>
      <line class="cls-3" x1="1163.32" y1="325.52" x2="1150" y2="323.6"/>
      <line class="cls-3" x1="1150.48" y1="319.88" x2="1163.92" y2="321.8"/>
      <line class="cls-3" x1="1206.4" y1="331.76" x2="1193.08" y2="329.84"/>
      <line class="cls-3" x1="1193.56" y1="326.12" x2="1206.88" y2="328.04"/>
      <polyline class="cls-3" points="1165.36 322.04 1164.88 325.64 1163.32 325.52 1163.92 321.8 1165.36 322.04"/>
      <polyline class="cls-3" points="1193.56 326.12 1193.08 329.84 1191.52 329.6 1192.12 325.88 1193.56 326.12"/>
      <line class="cls-3" x1="1282" y1="395.24" x2="1282" y2="372.44"/>
      <polyline class="cls-3" points="1283.8 421.04 1282 421.04 1282 419.6 1283.8 419.6"/>
      <polyline class="cls-3" points="1283.8 370.88 1285.72 370.88 1285.72 372.44 1283.8 372.44"/>
      <polyline class="cls-3" points="1282 419.6 1282 395.24 1283.8 395.24"/>
      <line class="cls-3" x1="1282" y1="396.8" x2="1283.8" y2="396.8"/>
      <rect class="cls-3" x="1286.68" y="366.2" width="1.44" height="3.72"/>
      <polyline class="cls-3" points="1330.12 366.2 1311.04 347.12 1310.2 348.08 1329.28 367.16"/>
      <path class="cls-3" d="M1311.13,347.09a26.94,26.94,0,0,0-7.89,19.05"/>
      <line class="cls-3" x1="1329.28" y1="367.16" x2="1330.12" y2="366.2"/>
      <rect class="cls-3" x="1284.52" y="372.44" width="0.12" height="22.8"/>
      <rect class="cls-3" x="1284.52" y="396.8" width="0.12" height="22.8"/>
      <polyline class="cls-3" points="1283.8 421.04 1285.72 421.04 1285.72 419.6 1283.8 419.6"/>
      <polyline class="cls-3" points="1283.8 370.88 1282 370.88 1282 372.44 1283.8 372.44"/>
      <line class="cls-3" x1="1285.72" y1="372.44" x2="1285.72" y2="395.24"/>
      <line class="cls-3" x1="1283.8" y1="395.24" x2="1283.8" y2="372.44"/>
      <line class="cls-3" x1="1285.72" y1="396.8" x2="1285.72" y2="419.6"/>
      <line class="cls-3" x1="1283.8" y1="419.6" x2="1283.8" y2="396.8"/>
      <polyline class="cls-3" points="1283.8 396.8 1285.72 396.8 1285.72 395.24 1283.8 395.24"/>
      <rect class="cls-3" x="1288.12" y="367.28" width="13.56" height="0.12"/>
      <rect class="cls-3" x="1330.12" y="366.2" width="1.56" height="3.72"/>
      <line class="cls-3" x1="1301.68" y1="369.92" x2="1288.12" y2="369.92"/>
      <line class="cls-3" x1="1288.12" y1="366.2" x2="1301.68" y2="366.2"/>
      <rect class="cls-3" x="1301.68" y="366.2" width="1.44" height="3.72"/>
      <line class="cls-3" x1="1457.2" y1="1033.28" x2="1457.2" y2="1094.36"/>
      <line class="cls-3" x1="1463.2" y1="1094.36" x2="1463.2" y2="1037.12"/>
      <line class="cls-4" x1="980.92" y1="591.8" x2="980.92" y2="575.6"/>
      <line class="cls-4" x1="980.92" y1="572.12" x2="980.92" y2="521.72"/>
      <line class="cls-4" x1="980.92" y1="519.92" x2="980.92" y2="504.92"/>
      <line class="cls-4" x1="980.92" y1="503.12" x2="980.92" y2="452.72"/>
      <line class="cls-4" x1="980.92" y1="449.12" x2="980.92" y2="434.72"/>
      <line class="cls-4" x1="984.64" y1="432.92" x2="984.64" y2="588.08"/>
      <line class="cls-4" x1="980.92" y1="591.8" x2="1044.52" y2="591.8"/>
      <line class="cls-4" x1="1098.52" y1="591.8" x2="1076.08" y2="591.8"/>
      <line class="cls-4" x1="984.64" y1="588.08" x2="1044.52" y2="588.08"/>
      <polyline class="cls-4" points="1098.52 588.08 1076.08 588.08 1076.08 591.8"/>
      <line class="cls-4" x1="1044.52" y1="591.8" x2="1044.52" y2="588.08"/>
      <line class="cls-4" x1="970.48" y1="678.92" x2="844.48" y2="678.92"/>
      <line class="cls-4" x1="842.2" y1="676.64" x2="972.76" y2="676.64"/>
      <line class="cls-4" x1="970.48" y1="701.36" x2="970.48" y2="678.92"/>
      <polyline class="cls-4" points="972.76 676.64 972.76 701.36 970.48 701.36"/>
      <line class="cls-4" x1="842.2" y1="701.36" x2="842.2" y2="676.64"/>
      <polyline class="cls-4" points="844.48 678.92 844.48 701.36 842.2 701.36"/>
      <line class="cls-3" x1="844.48" y1="696.92" x2="970.48" y2="696.92"/>
      <rect class="cls-3" x="857.2" y="741.92" width="54" height="22.44"/>
      <polyline class="cls-3" points="789.76 744.92 812.2 744.92 812.2 690.92 789.76 690.92"/>
      <polyline class="cls-3" points="789.76 798.92 812.2 798.92 812.2 744.92 789.76 744.92"/>
      <rect class="cls-3" x="911.2" y="741.92" width="54" height="22.44"/>
      <rect class="cls-3" x="857.2" y="764.36" width="54" height="22.56"/>
      <rect class="cls-3" x="911.2" y="764.36" width="54" height="22.56"/>
      <polyline class="cls-3" points="960.76 869.96 960.76 847.4 906.76 847.4 906.76 869.96 906.76 847.4 852.76 847.4 852.76 869.96"/>
      <polyline class="cls-3" points="1014.76 869.96 1014.76 847.4 960.76 847.4 960.76 869.96"/>
      <polyline class="cls-3" points="980.2 707.24 980.2 696.8 980.92 696.8 980.92 705.2 988 705.2 988 696.8 988.84 696.8 988.84 707.24 992.92 707.24 992.92 675.08 977.2 675.08 977.2 707.24 980.2 707.24"/>
      <polyline class="cls-3" points="977.2 694.88 977.2 707.24 980.2 707.24 980.2 696.8 988.84 696.8 988.84 707.24 992.92 707.24 992.92 694.88 977.2 694.88"/>
      <polyline class="cls-3" points="977.2 694.52 992.92 694.52 992.92 675.08 977.2 675.08"/>
      <line class="cls-3" x1="989.92" y1="694.52" x2="989.92" y2="675.08"/>
      <line class="cls-3" x1="977.2" y1="675.08" x2="977.2" y2="694.52"/>
      <line class="cls-3" x1="1335.16" y1="804.08" x2="1334.8" y2="804.08"/>
      <polyline class="cls-3" points="1335.28 804.44 1335.28 803 1334.8 803"/>
      <line class="cls-3" x1="1334.8" y1="804.44" x2="1336.12" y2="804.44"/>
      <line class="cls-3" x1="1335.76" y1="803.36" x2="1336.12" y2="803.36"/>
      <line class="cls-3" x1="1337.08" y1="803.36" x2="1337.92" y2="803.36"/>
      <line class="cls-3" x1="1335.76" y1="805.64" x2="1336.12" y2="805.64"/>
      <line class="cls-3" x1="1337.08" y1="805.64" x2="1337.92" y2="805.64"/>
      <line class="cls-3" x1="1335.76" y1="805.64" x2="1336.12" y2="805.16"/>
      <line class="cls-3" x1="1337.08" y1="804.2" x2="1337.92" y2="803.36"/>
      <line class="cls-3" x1="1337.92" y1="805.64" x2="1337.08" y2="804.8"/>
      <line class="cls-3" x1="1336.12" y1="803.84" x2="1335.76" y2="803.36"/>
      <line class="cls-3" x1="1336.12" y1="801.44" x2="1334.8" y2="801.44"/>
      <polyline class="cls-3" points="1340.92 807.2 1348.72 809.84 1349.56 809.84 1350.4 809.48 1351.12 809.12 1351.84 808.52 1352.44 807.8 1352.8 806.96 1353.16 806 1353.28 805.04 1353.28 803.96 1353.16 803 1352.8 802.04 1352.44 801.2 1351.84 800.48 1351.12 799.88 1350.4 799.52 1349.56 799.16 1348.72 799.16 1340.92 801.8"/>
      <line class="cls-3" x1="1334.8" y1="799.16" x2="1336.12" y2="799.76"/>
      <line class="cls-3" x1="1337.08" y1="800.12" x2="1340.92" y2="801.8"/>
      <line class="cls-3" x1="1334.8" y1="809.84" x2="1336.12" y2="809.24"/>
      <polyline class="cls-3" points="1337.08 808.88 1340.92 807.2 1348.72 809.84 1349.68 809.84 1350.52 809.48 1351.24 809 1351.96 808.28 1352.56 807.44 1353.04 806.6 1353.28 805.52 1353.28 803.48 1353.04 802.4 1352.56 801.56 1351.96 800.72 1351.24 800 1350.52 799.52 1349.68 799.16 1348.72 799.16 1340.92 801.8 1337.08 800.12"/>
      <line class="cls-3" x1="1336.12" y1="799.76" x2="1334.8" y2="799.16"/>
      <line class="cls-3" x1="1334.8" y1="809.84" x2="1336.12" y2="809.24"/>
      <line class="cls-3" x1="1337.08" y1="808.88" x2="1340.92" y2="807.2"/>
      <rect class="cls-3" x="1187.2" y="920.72" width="3.96" height="1.56"/>
      <rect class="cls-3" x="1187.2" y="883.28" width="3.96" height="1.44"/>
      <line class="cls-3" x1="1134.4" y1="432.92" x2="1134.28" y2="432.92"/>
      <line class="cls-3" x1="672.16" y1="390.92" x2="672.16" y2="391.04"/>
      <line class="cls-3" x1="672.16" y1="392.24" x2="672.16" y2="421.88"/>
      <line class="cls-3" x1="672.16" y1="422.96" x2="672.16" y2="423.92"/>
      <line class="cls-3" x1="627.16" y1="390.92" x2="627.16" y2="391.04"/>
      <line class="cls-3" x1="627.16" y1="392.24" x2="627.16" y2="421.88"/>
      <line class="cls-3" x1="627.16" y1="422.96" x2="627.16" y2="423.92"/>
      <line class="cls-3" x1="627.16" y1="390.92" x2="672.16" y2="390.92"/>
      <line class="cls-3" x1="663.76" y1="390.92" x2="663.76" y2="391.04"/>
      <line class="cls-3" x1="663.76" y1="392.24" x2="663.76" y2="399.44"/>
      <line class="cls-3" x1="663.76" y1="403.64" x2="663.76" y2="410.36"/>
      <line class="cls-3" x1="663.76" y1="414.56" x2="663.76" y2="421.88"/>
      <line class="cls-3" x1="663.76" y1="422.96" x2="663.76" y2="423.92"/>
      <line class="cls-3" x1="654.76" y1="390.92" x2="654.76" y2="391.04"/>
      <line class="cls-3" x1="654.76" y1="392.24" x2="654.76" y2="399.44"/>
      <line class="cls-3" x1="654.76" y1="403.64" x2="654.76" y2="410.36"/>
      <line class="cls-3" x1="654.76" y1="414.56" x2="654.76" y2="421.88"/>
      <line class="cls-3" x1="654.76" y1="422.96" x2="654.76" y2="423.92"/>
      <line class="cls-3" x1="645.76" y1="390.92" x2="645.76" y2="391.04"/>
      <line class="cls-3" x1="645.76" y1="392.24" x2="645.76" y2="399.44"/>
      <line class="cls-3" x1="645.76" y1="403.64" x2="645.76" y2="410.36"/>
      <line class="cls-3" x1="645.76" y1="414.56" x2="645.76" y2="421.88"/>
      <line class="cls-3" x1="645.76" y1="422.96" x2="645.76" y2="423.92"/>
      <line class="cls-3" x1="636.76" y1="390.92" x2="636.76" y2="391.04"/>
      <line class="cls-3" x1="636.76" y1="392.24" x2="636.76" y2="399.44"/>
      <line class="cls-3" x1="636.76" y1="403.64" x2="636.76" y2="410.36"/>
      <line class="cls-3" x1="636.76" y1="414.56" x2="636.76" y2="421.88"/>
      <line class="cls-3" x1="636.76" y1="422.96" x2="636.76" y2="423.92"/>
      <line class="cls-3" x1="627.76" y1="390.92" x2="627.76" y2="391.04"/>
      <line class="cls-3" x1="627.76" y1="392.24" x2="627.76" y2="399.44"/>
      <line class="cls-3" x1="627.76" y1="403.64" x2="627.76" y2="410.36"/>
      <line class="cls-3" x1="627.76" y1="414.56" x2="627.76" y2="421.88"/>
      <line class="cls-3" x1="627.76" y1="422.96" x2="627.76" y2="423.92"/>
      <line class="cls-3" x1="663.16" y1="390.92" x2="663.16" y2="391.04"/>
      <line class="cls-3" x1="663.16" y1="392.24" x2="663.16" y2="421.88"/>
      <line class="cls-3" x1="663.16" y1="422.96" x2="663.16" y2="423.92"/>
      <line class="cls-3" x1="654.16" y1="390.92" x2="654.16" y2="391.04"/>
      <line class="cls-3" x1="654.16" y1="392.24" x2="654.16" y2="421.88"/>
      <line class="cls-3" x1="654.16" y1="422.96" x2="654.16" y2="423.92"/>
      <line class="cls-3" x1="645.16" y1="390.92" x2="645.16" y2="391.04"/>
      <line class="cls-3" x1="645.16" y1="392.24" x2="645.16" y2="421.88"/>
      <line class="cls-3" x1="645.16" y1="422.96" x2="645.16" y2="423.92"/>
      <line class="cls-3" x1="636.16" y1="390.92" x2="636.16" y2="391.04"/>
      <line class="cls-3" x1="636.16" y1="392.24" x2="636.16" y2="421.88"/>
      <line class="cls-3" x1="636.16" y1="422.96" x2="636.16" y2="423.92"/>
      <polyline class="cls-3" points="627.16 407.36 672.16 407.36 667.72 411.92"/>
      <line class="cls-3" x1="672.16" y1="407.36" x2="667.72" y2="402.92"/>
      <line class="cls-3" x1="672.16" y1="391.04" x2="672.16" y2="392.24"/>
      <polyline class="cls-3" points="672.16 391.04 627.16 391.04 627.16 392.24 672.16 392.24"/>
      <line class="cls-3" x1="672.16" y1="421.88" x2="672.16" y2="422.96"/>
      <polyline class="cls-3" points="672.16 421.88 627.16 421.88 627.16 422.96 672.16 422.96"/>
      <polyline class="cls-3" points="1339.72 662.72 1339.72 634.28 1167.16 634.28 1167.16 662.72"/>
      <line class="cls-3" x1="1167.16" y1="662.24" x2="1308.88" y2="662.24"/>
      <line class="cls-3" x1="1335.88" y1="662.24" x2="1339.72" y2="662.24"/>
      <line class="cls-3" x1="1313.8" y1="804.08" x2="1314.16" y2="804.08"/>
      <polyline class="cls-3" points="1313.56 804.44 1313.56 803 1314.16 803"/>
      <line class="cls-3" x1="1314.16" y1="804.44" x2="1312.72" y2="804.44"/>
      <line class="cls-3" x1="1313.2" y1="803.36" x2="1312.72" y2="803.36"/>
      <line class="cls-3" x1="1311.76" y1="803.36" x2="1310.92" y2="803.36"/>
      <line class="cls-3" x1="1313.2" y1="805.64" x2="1312.72" y2="805.64"/>
      <line class="cls-3" x1="1311.76" y1="805.64" x2="1310.92" y2="805.64"/>
      <line class="cls-3" x1="1313.2" y1="805.64" x2="1312.72" y2="805.16"/>
      <line class="cls-3" x1="1311.76" y1="804.2" x2="1310.92" y2="803.36"/>
      <line class="cls-3" x1="1310.92" y1="805.64" x2="1311.76" y2="804.8"/>
      <line class="cls-3" x1="1312.72" y1="803.84" x2="1313.2" y2="803.36"/>
      <line class="cls-3" x1="1312.72" y1="801.44" x2="1314.16" y2="801.44"/>
      <polyline class="cls-3" points="1307.92 801.8 1300.12 799.16 1299.28 799.16 1298.56 799.52 1297.72 799.88 1297.12 800.48 1296.52 801.2 1296.04 802.04 1295.8 803 1295.56 803.96 1295.56 805.04 1295.8 806 1296.04 806.96 1296.52 807.8 1297.12 808.52 1297.72 809.12 1298.56 809.48 1299.28 809.84 1300.12 809.84 1307.92 807.2"/>
      <line class="cls-3" x1="1314.16" y1="799.16" x2="1312.72" y2="799.76"/>
      <line class="cls-3" x1="1311.76" y1="800.12" x2="1307.92" y2="801.8"/>
      <line class="cls-3" x1="1314.16" y1="809.84" x2="1312.72" y2="809.24"/>
      <line class="cls-3" x1="1311.76" y1="808.88" x2="1307.92" y2="807.2"/>
      <line class="cls-3" x1="1314.16" y1="809.84" x2="1312.72" y2="809.24"/>
      <line class="cls-3" x1="1311.76" y1="808.88" x2="1307.92" y2="807.2"/>
      <line class="cls-3" x1="1307.92" y1="801.8" x2="1311.76" y2="800.12"/>
      <line class="cls-3" x1="1312.72" y1="799.76" x2="1314.16" y2="799.16"/>
      <polyline class="cls-3" points="1307.92 807.2 1300.12 809.84 1299.28 809.84 1298.44 809.48 1297.6 809 1296.88 808.28 1296.4 807.44 1295.92 806.6 1295.68 805.52 1295.56 804.44 1295.68 803.48 1295.92 802.4 1296.4 801.56 1296.88 800.72 1297.6 800 1298.44 799.52 1299.28 799.16 1300.12 799.16 1307.92 801.8"/>
      <line class="cls-4" x1="1505.92" y1="945.56" x2="1503.88" y2="945.56"/>
      <line class="cls-4" x1="1497.76" y1="948.8" x2="1505.92" y2="948.8"/>
      <line class="cls-4" x1="1448.32" y1="945.08" x2="1448.32" y2="1027.64"/>
      <line class="cls-4" x1="1451.92" y1="1027.64" x2="1451.92" y2="948.8"/>
      <line class="cls-4" x1="1500.76" y1="939.32" x2="1500.76" y2="945.08"/>
      <line class="cls-4" x1="1503.88" y1="945.56" x2="1503.88" y2="939.32"/>
      <polyline class="cls-4" points="1500.76 945.08 1497.76 945.08 1497.76 948.8"/>
      <line class="cls-4" x1="1467.76" y1="945.08" x2="1448.32" y2="945.08"/>
      <polyline class="cls-4" points="1451.92 948.8 1467.76 948.8 1467.76 945.08"/>
      <path class="cls-3" d="M1495,918a27.05,27.05,0,0,0-25.75,27"/>
      <rect class="cls-3" x="1494.88" y="918.08" width="1.32" height="27"/>
      <rect class="cls-3" x="1496.2" y="945.08" width="1.56" height="3.72"/>
      <rect class="cls-3" x="1467.76" y="945.08" width="1.44" height="3.72"/>
      <line class="cls-3" x1="641.2" y1="815.36" x2="641.2" y2="817.64"/>
      <line class="cls-3" x1="640.36" y1="815.36" x2="640.36" y2="817.64"/>
      <line class="cls-3" x1="652.24" y1="815.36" x2="652.24" y2="817.64"/>
      <line class="cls-3" x1="653.08" y1="815.36" x2="653.08" y2="817.64"/>
      <line class="cls-3" x1="645.88" y1="810.8" x2="640" y2="801.2"/>
      <line class="cls-3" x1="647.44" y1="810.8" x2="653.44" y2="801.2"/>
      <line class="cls-3" x1="648.16" y1="812.6" x2="653.08" y2="814.64"/>
      <line class="cls-3" x1="640.36" y1="814.64" x2="645.28" y2="812.6"/>
      <path class="cls-3" d="M646.78,812.6a.54.54,0,1,0-.54-.54.54.54,0,0,0,.54.54"/>
      <path class="cls-3" d="M646.78,813a.9.9,0,1,0-.9-.9.9.9,0,0,0,.9.9"/>
      <line class="cls-3" x1="653.8" y1="800.96" x2="653.8" y2="814.52"/>
      <path class="cls-3" d="M653.8,800.9a.29.29,0,0,0-.3-.3"/>
      <line class="cls-3" x1="640" y1="800.6" x2="653.44" y2="800.6"/>
      <path class="cls-3" d="M640.06,800.6a.29.29,0,0,0-.3.3"/>
      <line class="cls-3" x1="639.64" y1="814.52" x2="639.64" y2="800.96"/>
      <path class="cls-3" d="M639.76,814.46a.42.42,0,0,0,.42.42"/>
      <line class="cls-3" x1="653.32" y1="815" x2="640.12" y2="815"/>
      <path class="cls-3" d="M653.38,814.88a.42.42,0,0,0,.42-.42"/>
      <line class="cls-3" x1="639.16" y1="800.96" x2="639.16" y2="818.24"/>
      <path class="cls-3" d="M640.06,800.12a.78.78,0,0,0-.78.78"/>
      <line class="cls-3" x1="653.44" y1="800.24" x2="640" y2="800.24"/>
      <path class="cls-3" d="M654.28,800.9a.78.78,0,0,0-.78-.78"/>
      <line class="cls-3" x1="654.16" y1="818.24" x2="654.16" y2="800.96"/>
      <path class="cls-3" d="M646.53,816a.54.54,0,0,0-.29.48"/>
      <path class="cls-3" d="M647.32,816.5A.54.54,0,0,0,647,816"/>
      <path class="cls-3" d="M646.24,816.5a.54.54,0,0,0,1.08,0"/>
      <polyline class="cls-3" points="643.48 816.68 643.24 816.68 643.24 816.8 642.04 816.68 642.04 816.8 641.92 816.8 641.8 816.68 641.56 816.68 641.56 816.44 641.8 816.44 641.92 816.32 642.04 816.32 642.04 816.44 643.24 816.32 643.36 816.32 643.48 816.44"/>
      <path class="cls-3" d="M644.08,816.5a.3.3,0,1,0-.6,0"/>
      <path class="cls-3" d="M643.48,816.5a.3.3,0,0,0,.6,0"/>
      <polyline class="cls-3" points="644.44 816.68 644.32 816.8 643.96 816.68"/>
      <polyline class="cls-3" points="644.44 816.68 644.44 816.44 644.32 816.32 643.96 816.44"/>
      <path class="cls-3" d="M644.68,816.5a.9.9,0,0,0-1.78-.21"/>
      <path class="cls-3" d="M642.9,816.7a.9.9,0,0,0,1.78-.2"/>
      <polyline class="cls-3" points="649.96 816.68 650.08 816.68 650.2 816.8 651.4 816.68 651.4 816.8 651.52 816.8 651.52 816.68 651.88 816.68 651.88 816.44 651.64 816.44 651.52 816.32 651.4 816.32 651.4 816.44 650.08 816.32 649.96 816.44"/>
      <path class="cls-3" d="M650.08,816.5a.3.3,0,1,0-.6,0"/>
      <path class="cls-3" d="M649.48,816.5a.3.3,0,0,0,.6,0"/>
      <polyline class="cls-3" points="649 816.68 649.12 816.8 649.36 816.68"/>
      <polyline class="cls-3" points="649 816.68 649 816.44 649.12 816.32 649.48 816.44"/>
      <path class="cls-3" d="M646.57,815.75a.78.78,0,0,0-.57.75"/>
      <line class="cls-3" x1="646.48" y1="816.56" x2="646.48" y2="813.08"/>
      <line class="cls-3" x1="646.96" y1="816.56" x2="646.96" y2="813.08"/>
      <path class="cls-3" d="M646.6,816.5a.18.18,0,0,0,.36,0"/>
      <path class="cls-3" d="M647.08,812.78a.3.3,0,1,0-.6,0"/>
      <path class="cls-3" d="M646.48,812.78a.3.3,0,1,0,.6,0"/>
      <path class="cls-3" d="M647.56,816.5a.78.78,0,0,0-.57-.75"/>
      <path class="cls-3" d="M646,816.5a.78.78,0,0,0,1.56,0"/>
      <path class="cls-3" d="M650.66,816.29a.9.9,0,0,0-1.78.21"/>
      <path class="cls-3" d="M648.88,816.5a.9.9,0,0,0,1.78.2"/>
      <line class="cls-3" x1="653.8" y1="814.52" x2="653.8" y2="800.96"/>
      <path class="cls-3" d="M653.8,800.9a.29.29,0,0,0-.3-.3"/>
      <line class="cls-3" x1="653.44" y1="800.6" x2="640" y2="800.6"/>
      <path class="cls-3" d="M640.06,800.6a.29.29,0,0,0-.3.3"/>
      <line class="cls-3" x1="639.64" y1="800.96" x2="639.64" y2="814.52"/>
      <path class="cls-3" d="M639.76,814.46a.42.42,0,0,0,.42.42"/>
      <line class="cls-3" x1="640.12" y1="815" x2="653.32" y2="815"/>
      <path class="cls-3" d="M653.38,814.88a.42.42,0,0,0,.42-.42"/>
    </g>
    <g class="cls-5">
      <polyline class="cls-4" points="1003.96 433.64 1003.96 451.64 1039.96 451.64 1039.96 433.64 985.96 433.64 985.96 487.64 1003.96 487.64"/>
      <polyline class="cls-4" points="1003.96 577.64 1003.96 559.64 1039.96 559.64 1039.96 577.64 985.96 577.64 985.96 523.64 1003.96 523.64"/>
      <polyline class="cls-4" points="1003.96 559.64 1003.96 523.64 1039.96 523.64 1039.96 487.64 1003.96 487.64 1003.96 451.64"/>
      <line class="cls-4" x1="1021.96" y1="487.64" x2="1021.96" y2="523.64"/>
      <line class="cls-4" x1="994.96" y1="433.64" x2="994.96" y2="487.64"/>
      <line class="cls-4" x1="985.96" y1="460.64" x2="994.96" y2="460.64"/>
      <line class="cls-4" x1="994.96" y1="577.64" x2="994.96" y2="523.64"/>
      <line class="cls-4" x1="985.96" y1="550.64" x2="994.96" y2="550.64"/>
      <rect class="cls-4" x="1003.96" y="432.92" width="36" height="1.44"/>
      <rect class="cls-4" x="1003.96" y="576.92" width="36" height="1.44"/>
      <line class="cls-4" x1="1021.84" y1="505.4" x2="985.84" y2="505.28"/>
      <line class="cls-4" x1="1021.84" y1="506.12" x2="985.84" y2="506"/>
      <line class="cls-4" x1="985.96" y1="487.64" x2="985.96" y2="523.64"/>
      <rect class="cls-4" x="789.76" y="690.92" width="22.44" height="54"/>
      <rect class="cls-4" x="789.76" y="744.92" width="22.44" height="54"/>
      <rect class="cls-4" x="857.2" y="741.92" width="54" height="22.44"/>
      <rect class="cls-4" x="911.2" y="741.92" width="54" height="22.44"/>
      <polyline class="cls-4" points="857.2 764.36 857.2 786.92 911.2 786.92 911.2 764.36 965.2 764.36 965.2 786.92 911.2 786.92 911.2 764.36 857.2 764.36"/>
      <rect class="cls-4" x="852.76" y="847.4" width="54" height="22.56"/>
      <rect class="cls-4" x="906.76" y="847.4" width="54" height="22.56"/>
      <rect class="cls-4" x="960.76" y="847.4" width="54" height="22.56"/>
      <rect class="cls-4" x="1105.24" y="436.52" width="22.56" height="54"/>
      <rect class="cls-4" x="1076.08" y="509.6" width="22.44" height="54"/>
    </g>
  </g>

  <g id="Names">
    <text class="cls-7" transform="translate(1197.33 744)"><tspan class="cls-8">W</tspan><tspan class="cls-9" x="19.44" y="0">omen</tspan><tspan class="cls-10" x="71.97" y="0"></tspan><tspan x="76.26" y="0">s</tspan><tspan x="0" y="25.2">Locker </tspan><tspan x="0" y="50.4">Room</tspan></text>
    <text class="cls-7" transform="translate(1386.03 745)">Men<tspan class="cls-8" x="40.85" y="0"></tspan><tspan x="45.14" y="0">s</tspan><tspan x="-7.39" y="25.2">Locker</tspan><tspan x="-0.38" y="50.4">Room</tspan></text>
    <text class="cls-11" transform="translate(1455.33 1002.67)"><tspan class="cls-12">W</tspan><tspan x="11.11" y="0">ellness</tspan><tspan x="0" y="14.4">Room</tspan></text>
    <text class="cls-11" transform="translate(1391 576.33)">UPS / Phone<tspan x="0" y="14.4">Room</tspan></text>
    <text class="cls-13" transform="translate(1156.67 625.33)">Print Room</text>
    <text class="cls-7" transform="translate(831.33 730.33)">Students / Mailroom</text>
    <text class="cls-13" transform="translate(825 545.67)">Storage</text>
    <text class="cls-6" transform="translate(1399.67 1069.67)">Elevator</text>
    <text class="cls-6" transform="translate(1219 467)">Elevator</text>
    <text class="cls-6" transform="translate(684.33 355.67)">Loading<tspan x="0" y="12">Dock</tspan></text>
    <text class="cls-13" transform="translate(366.61 625.6)">Mechanical <tspan x="0" y="43.2">Room</tspan></text>
    <text class="cls-7" transform="translate(1320.5 1037.5)">B003</text>
    <text class="cls-7" transform="translate(433.71 747)">B007</text>
    <text class="cls-7" transform="translate(1206.67 562.67)">B009</text>
    <text class="cls-7" transform="translate(1202.67 695)">B004</text>
    <text class="cls-7" transform="translate(1402 696.33)">B001</text>
    <text class="cls-7" transform="translate(1401.33 554)">B010</text>
    <text class="cls-7" transform="translate(1455.33 979)">B002</text>
    <text class="cls-7" transform="translate(972.67 773.33)">B006</text>
    <text class="cls-6" transform="translate(1049.33 511)">B008</text>
  </g>
  <g id="Boxes">
    <rect id="B005" data-seat="B005" class="cls-1 seat" x="1102.48" y="668.24" width="81.72" height="201.72"/>
    <rect id="B008b" data-seat="B008b" class="cls-1 seat" x="985.96" y="433.64" width="96.29" height="54.61"/>
    <rect id="B008a" data-seat="B008a" class="cls-1 seat" x="985.96" y="523.64" width="90.12" height="64.44"/>
  </g>
    <g id="Numbers">
    <text id="numB008a" class="cls-6 seat seat_num" data-seat="B008a" transform="translate(1012.67 546.67)">B008a</text>
    <text id="numB005" class="cls-7 seat seat_num" data-seat="B005" transform="translate(1119 771.67)">B005</text>
    <text id="numB008b" class="cls-6 seat seat_num" data-seat="B008b" transform="translate(1013.67 471.33)">B008b</text>
  </g>
</svg>
